<svg width="21" height="19" viewBox="0 0 21 19" fill="none" xmlns="http://www.w3.org/2000/svg">
<path d="M5.979 1.07401C6.86407 0.92321 7.77169 0.972956 8.63497 1.21958C9.49825 1.46621 10.2952 1.90343 10.967 2.49901L11.004 2.53201L11.038 2.50201C11.6792 1.93931 12.433 1.51981 13.2492 1.27149C14.0653 1.02318 14.9251 0.951766 15.771 1.06201L16.017 1.09801C17.0833 1.28212 18.08 1.75117 18.9015 2.45548C19.723 3.1598 20.3387 4.07316 20.6835 5.09885C21.0282 6.12454 21.0892 7.22437 20.8599 8.28188C20.6306 9.33939 20.1196 10.3152 19.381 11.106L19.201 11.291L19.153 11.332L11.703 18.711C11.5311 18.8812 11.3033 18.9832 11.0619 18.9983C10.8205 19.0134 10.5818 18.9405 10.39 18.793L10.296 18.711L2.803 11.289C2.00922 10.5167 1.4447 9.53969 1.17196 8.46628C0.899223 7.39287 0.928906 6.26491 1.25772 5.20733C1.58654 4.14974 2.20166 3.20381 3.03497 2.47428C3.86827 1.74476 4.88723 1.26011 5.979 1.07401Z" fill="#D7005A"/>
</svg>
